<svg width="231" height="80" viewBox="0 0 231 80" fill="none" xmlns="http://www.w3.org/2000/svg">
<g filter="url(#filter0_d_2364_112)">
<mask id="path-1-outside-1_2364_112" maskUnits="userSpaceOnUse" x="16" y="22" width="124" height="41" fill="black">
<rect fill="white" x="16" y="22" width="124" height="41"/>
<path d="M33.1625 24.0859C38.0127 24.0859 41.6586 24.8835 44.1 26.4785C46.5414 28.0736 47.7621 30.4336 47.7621 33.5586C47.7621 34.6979 47.5668 35.7721 47.1762 36.7812C46.7855 37.7578 46.2321 38.5553 45.516 39.1738C45.1579 39.4668 44.8161 39.7272 44.4906 39.9551C44.1651 40.1829 43.7907 40.3945 43.3676 40.5898C42.9769 40.7526 42.5049 40.9154 41.9515 41.0781C41.4307 41.2409 40.8122 41.4199 40.0961 41.6152C41.0075 41.8105 41.7888 42.0059 42.4398 42.2012C43.1234 42.3965 43.7256 42.6243 44.2465 42.8848C44.7673 43.1126 45.2393 43.373 45.6625 43.666C46.0857 43.959 46.5088 44.3008 46.932 44.6914C48.7549 46.319 49.6664 48.4186 49.6664 50.9902C49.6664 52.5527 49.3571 53.9525 48.7387 55.1895C48.1202 56.4264 47.225 57.4844 46.0531 58.3633C44.8812 59.2096 43.4652 59.8607 41.8051 60.3164C40.1449 60.7721 38.2732 61 36.1898 61H17.5375V59.9746C18.6768 59.9421 19.5883 59.8607 20.2719 59.7305C20.988 59.5677 21.5414 59.3073 21.932 58.9492C22.3226 58.5911 22.5831 58.1029 22.7133 57.4844C22.8435 56.8333 22.9086 56.0033 22.9086 54.9941V30.1895C22.9086 29.1478 22.8435 28.3177 22.7133 27.6992C22.6156 27.0807 22.3715 26.5924 21.9808 26.2344C21.5902 25.8763 21.0368 25.6322 20.3207 25.502C19.6371 25.3717 18.7094 25.2741 17.5375 25.209V24.0859H33.1625ZM28.5238 56.6543C28.5238 57.5658 28.768 58.1842 29.2562 58.5098C29.7445 58.8027 30.6397 58.9492 31.9418 58.9492C32.9183 58.9492 33.781 58.9329 34.5297 58.9004C35.3109 58.8353 36.0108 58.7539 36.6293 58.6562C37.2803 58.526 37.8663 58.3633 38.3871 58.168C38.9079 57.9727 39.3962 57.7448 39.8519 57.4844C42.1306 56.1823 43.2699 54.0339 43.2699 51.0391C43.2699 47.5234 41.6586 45.1471 38.4359 43.9102C37.9151 43.7148 37.3454 43.5521 36.7269 43.4219C36.141 43.2917 35.4574 43.194 34.6762 43.1289C33.9275 43.0312 33.0486 42.9661 32.0394 42.9336C31.0303 42.8685 29.8584 42.8359 28.5238 42.8359V56.6543ZM33.8949 40.5898C36.5316 40.5898 38.5499 40.0202 39.9496 38.8809C41.3819 37.709 42.098 36.0163 42.098 33.8027C42.098 31.2637 41.268 29.3594 39.6078 28.0898C37.9476 26.8203 35.49 26.1855 32.2347 26.1855H29.7933C28.947 26.1855 28.5238 26.7389 28.5238 27.8457V40.5898H33.8949ZM77.1078 61H76.2777L62.264 30.3848V52.7969C62.264 54.2292 62.3291 55.401 62.4594 56.3125C62.6221 57.1914 62.8988 57.8913 63.2894 58.4121C63.6801 58.9329 64.2172 59.3073 64.9008 59.5352C65.5844 59.763 66.4633 59.9095 67.5375 59.9746V61H54.4515V59.9746C55.5909 59.877 56.5023 59.7305 57.1859 59.5352C57.9021 59.3073 58.4392 58.9329 58.7972 58.4121C59.1879 57.8913 59.4483 57.1914 59.5785 56.3125C59.7087 55.401 59.7738 54.2292 59.7738 52.7969V30.1895C59.7738 29.1803 59.7087 28.3665 59.5785 27.748C59.4808 27.1296 59.2367 26.6413 58.8461 26.2832C58.488 25.9251 57.9672 25.681 57.2836 25.5508C56.6 25.388 55.6885 25.2741 54.5492 25.209V24.0859H65.5844L78.4262 52.2598L90.8285 24.0859H101.864V25.209C100.822 25.2741 99.9919 25.388 99.3734 25.5508C98.7549 25.7135 98.2666 25.974 97.9086 26.332C97.5505 26.6901 97.3064 27.1784 97.1762 27.7969C97.0785 28.4154 97.0297 29.2129 97.0297 30.1895V54.9941C97.0297 55.9707 97.0948 56.7682 97.225 57.3867C97.3552 58.0052 97.5831 58.4935 97.9086 58.8516C98.2666 59.2096 98.7549 59.4701 99.3734 59.6328C100.024 59.7956 100.855 59.9095 101.864 59.9746V61H86.2387V59.9746C87.3454 59.9095 88.2243 59.7956 88.8754 59.6328C89.559 59.4701 90.0798 59.1934 90.4379 58.8027C90.7959 58.3796 91.0238 57.8262 91.1215 57.1426C91.2517 56.4264 91.3168 55.4824 91.3168 54.3105V29.0664L77.1078 61ZM136.678 35.9023C136.418 34.9909 136.157 34.2096 135.897 33.5586C135.636 32.875 135.36 32.2728 135.067 31.752C134.806 31.1986 134.497 30.7103 134.139 30.2871C133.814 29.8639 133.423 29.4245 132.967 28.9688C131.86 27.8294 130.591 26.9831 129.159 26.4297C127.759 25.8438 126.261 25.5508 124.666 25.5508C122.648 25.5508 120.809 25.9414 119.149 26.7227C117.521 27.5039 116.121 28.627 114.95 30.0918C113.81 31.5241 112.931 33.2656 112.313 35.3164C111.694 37.3672 111.385 39.6458 111.385 42.1523C111.385 45.4076 111.825 48.2559 112.703 50.6973C113.582 53.1387 114.836 55.043 116.463 56.4102C118.905 58.3633 121.818 59.3398 125.203 59.3398C127.515 59.3398 129.647 58.9004 131.6 58.0215C133.553 57.1426 135.571 55.7103 137.655 53.7246L138.631 54.7012C136.939 56.9473 134.774 58.6888 132.137 59.9258C129.533 61.1628 126.636 61.7812 123.446 61.7812C120.679 61.7812 118.156 61.3255 115.877 60.4141C113.599 59.5026 111.646 58.2331 110.018 56.6055C108.39 54.9453 107.121 52.9596 106.209 50.6484C105.33 48.3372 104.891 45.7656 104.891 42.9336C104.891 39.7109 105.444 36.8138 106.551 34.2422C107.658 31.638 109.286 29.457 111.434 27.6992C113.127 26.332 115.031 25.2741 117.147 24.5254C119.263 23.7441 121.395 23.3535 123.543 23.3535C126.31 23.3535 129.045 23.8092 131.746 24.7207C132.658 25.0462 133.39 25.209 133.944 25.209C134.497 25.209 134.969 25.0462 135.36 24.7207C135.783 24.3952 136.076 23.9395 136.239 23.3535H137.411L137.948 35.9023H136.678Z"/>
</mask>
<path d="M33.1625 24.0859C38.0127 24.0859 41.6586 24.8835 44.1 26.4785C46.5414 28.0736 47.7621 30.4336 47.7621 33.5586C47.7621 34.6979 47.5668 35.7721 47.1762 36.7812C46.7855 37.7578 46.2321 38.5553 45.516 39.1738C45.1579 39.4668 44.8161 39.7272 44.4906 39.9551C44.1651 40.1829 43.7907 40.3945 43.3676 40.5898C42.9769 40.7526 42.5049 40.9154 41.9515 41.0781C41.4307 41.2409 40.8122 41.4199 40.0961 41.6152C41.0075 41.8105 41.7888 42.0059 42.4398 42.2012C43.1234 42.3965 43.7256 42.6243 44.2465 42.8848C44.7673 43.1126 45.2393 43.373 45.6625 43.666C46.0857 43.959 46.5088 44.3008 46.932 44.6914C48.7549 46.319 49.6664 48.4186 49.6664 50.9902C49.6664 52.5527 49.3571 53.9525 48.7387 55.1895C48.1202 56.4264 47.225 57.4844 46.0531 58.3633C44.8812 59.2096 43.4652 59.8607 41.8051 60.3164C40.1449 60.7721 38.2732 61 36.1898 61H17.5375V59.9746C18.6768 59.9421 19.5883 59.8607 20.2719 59.7305C20.988 59.5677 21.5414 59.3073 21.932 58.9492C22.3226 58.5911 22.5831 58.1029 22.7133 57.4844C22.8435 56.8333 22.9086 56.0033 22.9086 54.9941V30.1895C22.9086 29.1478 22.8435 28.3177 22.7133 27.6992C22.6156 27.0807 22.3715 26.5924 21.9808 26.2344C21.5902 25.8763 21.0368 25.6322 20.3207 25.502C19.6371 25.3717 18.7094 25.2741 17.5375 25.209V24.0859H33.1625ZM28.5238 56.6543C28.5238 57.5658 28.768 58.1842 29.2562 58.5098C29.7445 58.8027 30.6397 58.9492 31.9418 58.9492C32.9183 58.9492 33.781 58.9329 34.5297 58.9004C35.3109 58.8353 36.0108 58.7539 36.6293 58.6562C37.2803 58.526 37.8663 58.3633 38.3871 58.168C38.9079 57.9727 39.3962 57.7448 39.8519 57.4844C42.1306 56.1823 43.2699 54.0339 43.2699 51.0391C43.2699 47.5234 41.6586 45.1471 38.4359 43.9102C37.9151 43.7148 37.3454 43.5521 36.7269 43.4219C36.141 43.2917 35.4574 43.194 34.6762 43.1289C33.9275 43.0312 33.0486 42.9661 32.0394 42.9336C31.0303 42.8685 29.8584 42.8359 28.5238 42.8359V56.6543ZM33.8949 40.5898C36.5316 40.5898 38.5499 40.0202 39.9496 38.8809C41.3819 37.709 42.098 36.0163 42.098 33.8027C42.098 31.2637 41.268 29.3594 39.6078 28.0898C37.9476 26.8203 35.49 26.1855 32.2347 26.1855H29.7933C28.947 26.1855 28.5238 26.7389 28.5238 27.8457V40.5898H33.8949ZM77.1078 61H76.2777L62.264 30.3848V52.7969C62.264 54.2292 62.3291 55.401 62.4594 56.3125C62.6221 57.1914 62.8988 57.8913 63.2894 58.4121C63.6801 58.9329 64.2172 59.3073 64.9008 59.5352C65.5844 59.763 66.4633 59.9095 67.5375 59.9746V61H54.4515V59.9746C55.5909 59.877 56.5023 59.7305 57.1859 59.5352C57.9021 59.3073 58.4392 58.9329 58.7972 58.4121C59.1879 57.8913 59.4483 57.1914 59.5785 56.3125C59.7087 55.401 59.7738 54.2292 59.7738 52.7969V30.1895C59.7738 29.1803 59.7087 28.3665 59.5785 27.748C59.4808 27.1296 59.2367 26.6413 58.8461 26.2832C58.488 25.9251 57.9672 25.681 57.2836 25.5508C56.6 25.388 55.6885 25.2741 54.5492 25.209V24.0859H65.5844L78.4262 52.2598L90.8285 24.0859H101.864V25.209C100.822 25.2741 99.9919 25.388 99.3734 25.5508C98.7549 25.7135 98.2666 25.974 97.9086 26.332C97.5505 26.6901 97.3064 27.1784 97.1762 27.7969C97.0785 28.4154 97.0297 29.2129 97.0297 30.1895V54.9941C97.0297 55.9707 97.0948 56.7682 97.225 57.3867C97.3552 58.0052 97.5831 58.4935 97.9086 58.8516C98.2666 59.2096 98.7549 59.4701 99.3734 59.6328C100.024 59.7956 100.855 59.9095 101.864 59.9746V61H86.2387V59.9746C87.3454 59.9095 88.2243 59.7956 88.8754 59.6328C89.559 59.4701 90.0798 59.1934 90.4379 58.8027C90.7959 58.3796 91.0238 57.8262 91.1215 57.1426C91.2517 56.4264 91.3168 55.4824 91.3168 54.3105V29.0664L77.1078 61ZM136.678 35.9023C136.418 34.9909 136.157 34.2096 135.897 33.5586C135.636 32.875 135.36 32.2728 135.067 31.752C134.806 31.1986 134.497 30.7103 134.139 30.2871C133.814 29.8639 133.423 29.4245 132.967 28.9688C131.86 27.8294 130.591 26.9831 129.159 26.4297C127.759 25.8438 126.261 25.5508 124.666 25.5508C122.648 25.5508 120.809 25.9414 119.149 26.7227C117.521 27.5039 116.121 28.627 114.95 30.0918C113.81 31.5241 112.931 33.2656 112.313 35.3164C111.694 37.3672 111.385 39.6458 111.385 42.1523C111.385 45.4076 111.825 48.2559 112.703 50.6973C113.582 53.1387 114.836 55.043 116.463 56.4102C118.905 58.3633 121.818 59.3398 125.203 59.3398C127.515 59.3398 129.647 58.9004 131.6 58.0215C133.553 57.1426 135.571 55.7103 137.655 53.7246L138.631 54.7012C136.939 56.9473 134.774 58.6888 132.137 59.9258C129.533 61.1628 126.636 61.7812 123.446 61.7812C120.679 61.7812 118.156 61.3255 115.877 60.4141C113.599 59.5026 111.646 58.2331 110.018 56.6055C108.39 54.9453 107.121 52.9596 106.209 50.6484C105.33 48.3372 104.891 45.7656 104.891 42.9336C104.891 39.7109 105.444 36.8138 106.551 34.2422C107.658 31.638 109.286 29.457 111.434 27.6992C113.127 26.332 115.031 25.2741 117.147 24.5254C119.263 23.7441 121.395 23.3535 123.543 23.3535C126.31 23.3535 129.045 23.8092 131.746 24.7207C132.658 25.0462 133.39 25.209 133.944 25.209C134.497 25.209 134.969 25.0462 135.36 24.7207C135.783 24.3952 136.076 23.9395 136.239 23.3535H137.411L137.948 35.9023H136.678Z" fill="black"/>
<path d="M47.1762 36.7812L48.1047 37.1527L48.1087 37.1422L47.1762 36.7812ZM45.516 39.1738L46.1492 39.9478L46.1595 39.9394L46.1696 39.9307L45.516 39.1738ZM43.3676 40.5898L43.7522 41.5129L43.7695 41.5057L43.7866 41.4978L43.3676 40.5898ZM41.9515 41.0781L41.6694 40.1188L41.6613 40.1211L41.6533 40.1236L41.9515 41.0781ZM40.0961 41.6152L39.833 40.6505L39.8865 42.593L40.0961 41.6152ZM42.4398 42.2012L42.1525 43.1591L42.1651 43.1627L42.4398 42.2012ZM44.2465 42.8848L43.7993 43.7792L43.8222 43.7907L43.8456 43.8009L44.2465 42.8848ZM46.932 44.6914L46.2537 45.4262L46.2598 45.4318L46.266 45.4373L46.932 44.6914ZM48.7387 55.1895L49.6331 55.6367L48.7387 55.1895ZM46.0531 58.3633L46.6386 59.174L46.6459 59.1687L46.6531 59.1633L46.0531 58.3633ZM17.5375 61H16.5375V62H17.5375V61ZM17.5375 59.9746L17.5089 58.975L16.5375 59.0028V59.9746H17.5375ZM20.2719 59.7305L20.459 60.7128L20.4763 60.7095L20.4935 60.7056L20.2719 59.7305ZM22.7133 57.4844L23.6919 57.6904L23.6938 57.6805L22.7133 57.4844ZM22.7133 27.6992L21.7255 27.8552L21.7295 27.8803L21.7347 27.9052L22.7133 27.6992ZM20.3207 25.502L20.1336 26.4843L20.1418 26.4858L20.3207 25.502ZM17.5375 25.209H16.5375V26.155L17.482 26.2074L17.5375 25.209ZM17.5375 24.0859V23.0859H16.5375V24.0859H17.5375ZM29.2562 58.5098L28.7015 59.3418L28.7213 59.355L28.7417 59.3673L29.2562 58.5098ZM34.5297 58.9004L34.5731 59.8994L34.5929 59.8986L34.6127 59.8969L34.5297 58.9004ZM36.6293 58.6562L36.7852 59.644L36.8054 59.6408L36.8254 59.6368L36.6293 58.6562ZM39.8519 57.4844L39.3558 56.6161L39.8519 57.4844ZM38.4359 43.9102L38.7943 42.9765L38.787 42.9738L38.4359 43.9102ZM36.7269 43.4219L36.51 44.3981L36.5209 44.4004L36.7269 43.4219ZM34.6762 43.1289L34.5468 44.1205L34.5699 44.1235L34.5931 44.1255L34.6762 43.1289ZM32.0394 42.9336L31.9751 43.9315L31.9911 43.9326L32.0072 43.9331L32.0394 42.9336ZM28.5238 42.8359V41.8359H27.5238V42.8359H28.5238ZM39.9496 38.8809L40.5809 39.6564L40.5828 39.6548L39.9496 38.8809ZM28.5238 40.5898H27.5238V41.5898H28.5238V40.5898ZM33.1625 24.0859V25.0859C37.9341 25.0859 41.3497 25.8761 43.553 27.3157L44.1 26.4785L44.6469 25.6413C41.9675 23.8908 38.0914 23.0859 33.1625 23.0859V24.0859ZM44.1 26.4785L43.553 27.3157C45.6885 28.7108 46.7621 30.7424 46.7621 33.5586H47.7621H48.7621C48.7621 30.1248 47.3943 27.4363 44.6469 25.6413L44.1 26.4785ZM47.7621 33.5586H46.7621C46.7621 34.5811 46.5873 35.5323 46.2436 36.4203L47.1762 36.7812L48.1087 37.1422C48.5462 36.012 48.7621 34.8148 48.7621 33.5586H47.7621ZM47.1762 36.7812L46.2477 36.4099C45.9098 37.2546 45.4444 37.9144 44.8624 38.417L45.516 39.1738L46.1696 39.9307C47.0199 39.1963 47.6613 38.261 48.1046 37.1526L47.1762 36.7812ZM45.516 39.1738L44.8828 38.3999C44.541 38.6795 44.2192 38.9244 43.9171 39.1358L44.4906 39.9551L45.0641 40.7743C45.4131 40.53 45.7749 40.2541 46.1492 39.9478L45.516 39.1738ZM44.4906 39.9551L43.9171 39.1358C43.6478 39.3244 43.3267 39.5073 42.9485 39.6819L43.3676 40.5898L43.7866 41.4978C44.2548 41.2817 44.6823 41.0415 45.0641 40.7743L44.4906 39.9551ZM43.3676 40.5898L42.9829 39.6668C42.6353 39.8116 42.1995 39.9628 41.6694 40.1188L41.9515 41.0781L42.2337 42.0375C42.8103 41.8679 43.3186 41.6936 43.7522 41.5129L43.3676 40.5898ZM41.9515 41.0781L41.6533 40.1236C41.1474 40.2817 40.5412 40.4573 39.833 40.6505L40.0961 41.6152L40.3592 42.58C41.0832 42.3825 41.714 42.2 42.2498 42.0326L41.9515 41.0781ZM40.0961 41.6152L39.8865 42.593C40.7807 42.7846 41.5345 42.9736 42.1525 43.159L42.4398 42.2012L42.7272 41.2433C42.0431 41.0381 41.2344 40.8365 40.3056 40.6374L40.0961 41.6152ZM42.4398 42.2012L42.1651 43.1627C42.8017 43.3446 43.3442 43.5517 43.7993 43.7792L44.2465 42.8848L44.6937 41.9903C44.107 41.697 43.4451 41.4484 42.7145 41.2396L42.4398 42.2012ZM44.2465 42.8848L43.8456 43.8009C44.3135 44.0056 44.7282 44.2355 45.0933 44.4882L45.6625 43.666L46.2317 42.8438C45.7504 42.5106 45.2211 42.2196 44.6473 41.9686L44.2465 42.8848ZM45.6625 43.666L45.0933 44.4882C45.4739 44.7517 45.8609 45.0636 46.2537 45.4262L46.932 44.6914L47.6103 43.9566C47.1568 43.538 46.6974 43.1662 46.2317 42.8438L45.6625 43.666ZM46.932 44.6914L46.266 45.4373C47.8641 46.8643 48.6664 48.6866 48.6664 50.9902H49.6664H50.6664C50.6664 48.1506 49.6457 45.7738 47.598 43.9455L46.932 44.6914ZM49.6664 50.9902H48.6664C48.6664 52.4178 48.3847 53.6612 47.8442 54.7422L48.7387 55.1895L49.6331 55.6367C50.3295 54.2437 50.6664 52.6877 50.6664 50.9902H49.6664ZM48.7387 55.1895L47.8442 54.7422C47.2993 55.8322 46.5083 56.7719 45.4531 57.5633L46.0531 58.3633L46.6531 59.1633C47.9416 58.1969 48.9411 57.0207 49.6331 55.6367L48.7387 55.1895ZM46.0531 58.3633L45.4676 57.5526C44.4092 58.317 43.1067 58.9221 41.5403 59.3521L41.8051 60.3164L42.0698 61.2807C43.8237 60.7993 45.3533 60.1022 46.6386 59.174L46.0531 58.3633ZM41.8051 60.3164L41.5403 59.3521C39.9823 59.7798 38.2018 60 36.1898 60V61V62C38.3445 62 40.3075 61.7645 42.0698 61.2807L41.8051 60.3164ZM36.1898 61V60H17.5375V61V62H36.1898V61ZM17.5375 61H18.5375V59.9746H17.5375H16.5375V61H17.5375ZM17.5375 59.9746L17.566 60.9742C18.7296 60.941 19.7007 60.8572 20.459 60.7128L20.2719 59.7305L20.0847 58.7481C19.4758 58.8641 18.624 58.9432 17.5089 58.975L17.5375 59.9746ZM20.2719 59.7305L20.4935 60.7056C21.3168 60.5185 22.0489 60.1986 22.6077 59.6864L21.932 58.9492L21.2563 58.2121C21.0338 58.416 20.6592 58.6169 20.0502 58.7553L20.2719 59.7305ZM21.932 58.9492L22.6077 59.6864C23.1801 59.1617 23.5271 58.4728 23.6918 57.6904L22.7133 57.4844L21.7347 57.2784C21.639 57.7329 21.4652 58.0206 21.2563 58.2121L21.932 58.9492ZM22.7133 57.4844L23.6938 57.6805C23.8418 56.9408 23.9086 56.0389 23.9086 54.9941H22.9086H21.9086C21.9086 55.9676 21.8452 56.7259 21.7327 57.2883L22.7133 57.4844ZM22.9086 54.9941H23.9086V30.1895H22.9086H21.9086V54.9941H22.9086ZM22.9086 30.1895H23.9086C23.9086 29.1169 23.8425 28.2088 23.6918 27.4932L22.7133 27.6992L21.7347 27.9052C21.8445 28.4266 21.9086 29.1787 21.9086 30.1895H22.9086ZM22.7133 27.6992L23.701 27.5433C23.5748 26.7436 23.243 26.0347 22.6566 25.4972L21.9808 26.2344L21.3051 26.9715C21.5 27.1501 21.6565 27.4179 21.7255 27.8552L22.7133 27.6992ZM21.9808 26.2344L22.6566 25.4972C22.0841 24.9725 21.3344 24.6699 20.4996 24.5181L20.3207 25.502L20.1418 26.4858C20.7392 26.5944 21.0963 26.7801 21.3051 26.9715L21.9808 26.2344ZM20.3207 25.502L20.5078 24.5196C19.7613 24.3774 18.7835 24.2767 17.593 24.2105L17.5375 25.209L17.482 26.2074C18.6353 26.2715 19.5129 26.3661 20.1336 26.4843L20.3207 25.502ZM17.5375 25.209H18.5375V24.0859H17.5375H16.5375V25.209H17.5375ZM17.5375 24.0859V25.0859H33.1625V24.0859V23.0859H17.5375V24.0859ZM28.5238 56.6543H27.5238C27.5238 57.7071 27.8058 58.7446 28.7015 59.3418L29.2562 58.5098L29.8109 57.6777C29.7301 57.6238 29.5238 57.4244 29.5238 56.6543H28.5238ZM29.2562 58.5098L28.7417 59.3673C29.1394 59.6059 29.6252 59.7432 30.1323 59.8262C30.6508 59.9111 31.2578 59.9492 31.9418 59.9492V58.9492V57.9492C31.3237 57.9492 30.8321 57.9141 30.4553 57.8525C30.0672 57.789 29.8614 57.7066 29.7707 57.6523L29.2562 58.5098ZM31.9418 58.9492V59.9492C32.9288 59.9492 33.8064 59.9328 34.5731 59.8994L34.5297 58.9004L34.4862 57.9013C33.7556 57.9331 32.9079 57.9492 31.9418 57.9492V58.9492ZM34.5297 58.9004L34.6127 59.8969C35.4126 59.8303 36.1374 59.7463 36.7852 59.644L36.6293 58.6562L36.4733 57.6685C35.8841 57.7615 35.2092 57.8403 34.4466 57.9038L34.5297 58.9004ZM36.6293 58.6562L36.8254 59.6368C37.5194 59.498 38.1584 59.3217 38.7382 59.1043L38.3871 58.168L38.036 57.2316C37.5741 57.4049 37.0412 57.5541 36.4332 57.6757L36.6293 58.6562ZM38.3871 58.168L38.7382 59.1043C39.3062 58.8913 39.8432 58.6411 40.3481 58.3526L39.8519 57.4844L39.3558 56.6161C38.9492 56.8485 38.5097 57.054 38.036 57.2316L38.3871 58.168ZM39.8519 57.4844L40.3481 58.3526C42.9878 56.8442 44.2699 54.3318 44.2699 51.0391H43.2699H42.2699C42.2699 53.7359 41.2734 55.5204 39.3558 56.6161L39.8519 57.4844ZM43.2699 51.0391H44.2699C44.2699 49.1265 43.8301 47.4466 42.8891 46.0589C41.9471 44.6698 40.5571 43.6532 38.7943 42.9766L38.4359 43.9102L38.0776 44.8437C39.5374 45.4041 40.5644 46.1942 41.2337 47.1813C41.9041 48.1699 42.2699 49.436 42.2699 51.0391H43.2699ZM38.4359 43.9102L38.787 42.9738C38.2131 42.7586 37.5943 42.5826 36.9329 42.4433L36.7269 43.4219L36.5209 44.4004C37.0966 44.5216 37.6171 44.6711 38.0848 44.8465L38.4359 43.9102ZM36.7269 43.4219L36.9439 42.4457C36.3028 42.3032 35.5727 42.2002 34.7592 42.1324L34.6762 43.1289L34.5931 44.1255C35.3421 44.1879 35.9792 44.2801 36.51 44.3981L36.7269 43.4219ZM34.6762 43.1289L34.8055 42.1373C34.0159 42.0343 33.1032 41.9674 32.0717 41.9341L32.0394 42.9336L32.0072 43.9331C32.9939 43.9649 33.839 44.0282 34.5468 44.1205L34.6762 43.1289ZM32.0394 42.9336L32.1038 41.9357C31.0678 41.8688 29.8736 41.8359 28.5238 41.8359V42.8359V43.8359C29.8433 43.8359 30.9929 43.8682 31.9751 43.9315L32.0394 42.9336ZM28.5238 42.8359H27.5238V56.6543H28.5238H29.5238V42.8359H28.5238ZM33.8949 40.5898V41.5898C36.6588 41.5898 38.9367 40.9947 40.5809 39.6564L39.9496 38.8809L39.3183 38.1053C38.163 39.0456 36.4045 39.5898 33.8949 39.5898V40.5898ZM39.9496 38.8809L40.5828 39.6548C42.2934 38.2553 43.098 36.251 43.098 33.8027H42.098H41.098C41.098 35.7815 40.4704 37.1627 39.3164 38.1069L39.9496 38.8809ZM42.098 33.8027H43.098C43.098 31.0269 42.1767 28.7954 40.2152 27.2955L39.6078 28.0898L39.0003 28.8842C40.3592 29.9234 41.098 31.5005 41.098 33.8027H42.098ZM39.6078 28.0898L40.2152 27.2955C38.3073 25.8365 35.5946 25.1855 32.2347 25.1855V26.1855V27.1855C35.3853 27.1855 37.5879 27.8041 39.0003 28.8842L39.6078 28.0898ZM32.2347 26.1855V25.1855H29.7933V26.1855V27.1855H32.2347V26.1855ZM29.7933 26.1855V25.1855C29.1334 25.1855 28.4888 25.4152 28.0468 25.9931C27.6437 26.5203 27.5238 27.1931 27.5238 27.8457H28.5238H29.5238C29.5238 27.3916 29.6155 27.2342 29.6356 27.208C29.6388 27.2038 29.6355 27.2069 29.6375 27.206C29.6454 27.2026 29.6894 27.1855 29.7933 27.1855V26.1855ZM28.5238 27.8457H27.5238V40.5898H28.5238H29.5238V27.8457H28.5238ZM28.5238 40.5898V41.5898H33.8949V40.5898V39.5898H28.5238V40.5898ZM77.1078 61V62H77.7574L78.0214 61.4065L77.1078 61ZM76.2777 61L75.3684 61.4162L75.6357 62H76.2777V61ZM62.264 30.3848L63.1733 29.9686L61.264 30.3848H62.264ZM62.4594 56.3125L61.4694 56.4539L61.4723 56.4743L61.4761 56.4946L62.4594 56.3125ZM67.5375 59.9746H68.5375V59.0334L67.598 58.9764L67.5375 59.9746ZM67.5375 61V62H68.5375V61H67.5375ZM54.4515 61H53.4515V62H54.4515V61ZM54.4515 59.9746L54.3661 58.9783L53.4515 59.0567V59.9746H54.4515ZM57.1859 59.5352L57.4606 60.4967L57.4749 60.4926L57.4891 60.4881L57.1859 59.5352ZM58.7972 58.4121L57.9972 57.8121L57.9849 57.8286L57.9732 57.8456L58.7972 58.4121ZM59.5785 56.3125L60.5677 56.4591L60.5684 56.4539L59.5785 56.3125ZM59.5785 27.748L58.5907 27.904L58.5947 27.9292L58.5999 27.9541L59.5785 27.748ZM58.8461 26.2832L58.139 26.9903L58.1543 27.0057L58.1704 27.0204L58.8461 26.2832ZM57.2836 25.5508L57.052 26.5236L57.0741 26.5289L57.0965 26.5331L57.2836 25.5508ZM54.5492 25.209H53.5492V26.1535L54.4922 26.2074L54.5492 25.209ZM54.5492 24.0859V23.0859H53.5492V24.0859H54.5492ZM65.5844 24.0859L66.4943 23.6712L66.2275 23.0859H65.5844V24.0859ZM78.4262 52.2598L77.5162 52.6745L78.442 54.7057L79.3414 52.6627L78.4262 52.2598ZM90.8285 24.0859V23.0859H90.1761L89.9133 23.683L90.8285 24.0859ZM101.864 24.0859H102.864V23.0859H101.864V24.0859ZM101.864 25.209L101.926 26.207L102.864 26.1484V25.209H101.864ZM97.1762 27.7969L96.1976 27.5909L96.1924 27.6158L96.1884 27.6409L97.1762 27.7969ZM97.225 57.3867L96.2464 57.5927L97.225 57.3867ZM97.9086 58.8516L97.1686 59.5242L97.1846 59.5418L97.2015 59.5587L97.9086 58.8516ZM99.3734 59.6328L99.1189 60.6L99.1309 60.603L99.3734 59.6328ZM101.864 59.9746H102.864V59.037L101.928 58.9767L101.864 59.9746ZM101.864 61V62H102.864V61H101.864ZM86.2387 61H85.2387V62H86.2387V61ZM86.2387 59.9746L86.1799 58.9763L85.2387 59.0317V59.9746H86.2387ZM88.8754 59.6328L88.6437 58.6599L88.6328 58.6627L88.8754 59.6328ZM90.4379 58.8027L91.175 59.4785L91.1884 59.4638L91.2013 59.4487L90.4379 58.8027ZM91.1215 57.1426L90.1376 56.9637L90.1342 56.9824L90.1315 57.0012L91.1215 57.1426ZM91.3168 29.0664H92.3168L90.4031 28.6599L91.3168 29.0664ZM77.1078 61V60H76.2777V61V62H77.1078V61ZM76.2777 61L77.187 60.5838L63.1733 29.9686L62.264 30.3848L61.3548 30.801L75.3684 61.4162L76.2777 61ZM62.264 30.3848H61.264V52.7969H62.264H63.264V30.3848H62.264ZM62.264 52.7969H61.264C61.264 54.2536 61.3299 55.4774 61.4694 56.4539L62.4594 56.3125L63.4493 56.1711C63.3284 55.3247 63.264 54.2047 63.264 52.7969H62.264ZM62.4594 56.3125L61.4761 56.4946C61.657 57.4716 61.9785 58.3308 62.4894 59.0121L63.2894 58.4121L64.0894 57.8121C63.8192 57.4517 63.5872 56.9112 63.4426 56.1304L62.4594 56.3125ZM63.2894 58.4121L62.4894 59.0121C63.015 59.7129 63.7295 60.1988 64.5845 60.4838L64.9008 59.5352L65.217 58.5865C64.7049 58.4158 64.3451 58.153 64.0894 57.8121L63.2894 58.4121ZM64.9008 59.5352L64.5845 60.4838C65.3807 60.7492 66.3541 60.9047 67.477 60.9728L67.5375 59.9746L67.598 58.9764C66.5725 58.9143 65.788 58.7768 65.217 58.5865L64.9008 59.5352ZM67.5375 59.9746H66.5375V61H67.5375H68.5375V59.9746H67.5375ZM67.5375 61V60H54.4515V61V62H67.5375V61ZM54.4515 61H55.4515V59.9746H54.4515H53.4515V61H54.4515ZM54.4515 59.9746L54.5369 60.971C55.7067 60.8707 56.6896 60.717 57.4606 60.4967L57.1859 59.5352L56.9112 58.5736C56.3151 58.7439 55.475 58.8832 54.3661 58.9783L54.4515 59.9746ZM57.1859 59.5352L57.4891 60.4881C58.3755 60.206 59.1147 59.7154 59.6213 58.9786L58.7972 58.4121L57.9732 57.8456C57.7636 58.1505 57.4286 58.4085 56.8827 58.5822L57.1859 59.5352ZM58.7972 58.4121L59.5972 59.0121C60.1174 58.3185 60.4216 57.4452 60.5677 56.459L59.5785 56.3125L58.5893 56.166C58.475 56.9376 58.2583 57.464 57.9972 57.8121L58.7972 58.4121ZM59.5785 56.3125L60.5684 56.4539C60.708 55.4774 60.7738 54.2536 60.7738 52.7969H59.7738H58.7738C58.7738 54.2047 58.7095 55.3247 58.5885 56.1711L59.5785 56.3125ZM59.7738 52.7969H60.7738V30.1895H59.7738H58.7738V52.7969H59.7738ZM59.7738 30.1895H60.7738C60.7738 29.1469 60.7074 28.256 60.557 27.542L59.5785 27.748L58.5999 27.9541C58.71 28.477 58.7738 29.2138 58.7738 30.1895H59.7738ZM59.5785 27.748L60.5663 27.5921C60.44 26.7924 60.1082 26.0836 59.5218 25.546L58.8461 26.2832L58.1704 27.0204C58.3652 27.199 58.5217 27.4667 58.5907 27.904L59.5785 27.748ZM58.8461 26.2832L59.5532 25.5761C59.0093 25.0322 58.2797 24.7225 57.4707 24.5684L57.2836 25.5508L57.0965 26.5331C57.6547 26.6394 57.9667 26.8181 58.139 26.9903L58.8461 26.2832ZM57.2836 25.5508L57.5152 24.578C56.7501 24.3958 55.7729 24.2773 54.6063 24.2106L54.5492 25.209L54.4922 26.2074C55.6041 26.2709 56.4498 26.3802 57.052 26.5236L57.2836 25.5508ZM54.5492 25.209H55.5492V24.0859H54.5492H53.5492V25.209H54.5492ZM54.5492 24.0859V25.0859H65.5844V24.0859V23.0859H54.5492V24.0859ZM65.5844 24.0859L64.6744 24.5007L77.5162 52.6745L78.4262 52.2598L79.3361 51.845L66.4943 23.6712L65.5844 24.0859ZM78.4262 52.2598L79.3414 52.6627L91.7437 24.4888L90.8285 24.0859L89.9133 23.683L77.5109 51.8569L78.4262 52.2598ZM90.8285 24.0859V25.0859H101.864V24.0859V23.0859H90.8285V24.0859ZM101.864 24.0859H100.864V25.209H101.864H102.864V24.0859H101.864ZM101.864 25.209L101.801 24.2109C100.73 24.2779 99.827 24.3974 99.1189 24.5837L99.3734 25.5508L99.6279 26.5179C100.157 26.3787 100.914 26.2703 101.926 26.207L101.864 25.209ZM99.3734 25.5508L99.1189 24.5837C98.3736 24.7798 97.7136 25.1128 97.2015 25.6249L97.9086 26.332L98.6157 27.0391C98.8197 26.8351 99.1363 26.6472 99.6279 26.5179L99.3734 25.5508ZM97.9086 26.332L97.2015 25.6249C96.6758 26.1506 96.3579 26.8297 96.1976 27.5909L97.1762 27.7969L98.1547 28.0029C98.2549 27.5271 98.4253 27.2296 98.6157 27.0391L97.9086 26.332ZM97.1762 27.7969L96.1884 27.6409C96.0794 28.3312 96.0297 29.1861 96.0297 30.1895H97.0297H98.0297C98.0297 29.2397 98.0776 28.4996 98.1639 27.9528L97.1762 27.7969ZM97.0297 30.1895H96.0297V54.9941H97.0297H98.0297V30.1895H97.0297ZM97.0297 54.9941H96.0297C96.0297 56.0068 96.0965 56.8804 96.2464 57.5927L97.225 57.3867L98.2035 57.1807C98.0931 56.6561 98.0297 55.9346 98.0297 54.9941H97.0297ZM97.225 57.3867L96.2464 57.5927C96.4023 58.3333 96.6922 59.0002 97.1686 59.5242L97.9086 58.8516L98.6485 58.1789C98.4739 57.9868 98.308 57.6771 98.2035 57.1807L97.225 57.3867ZM97.9086 58.8516L97.2015 59.5587C97.7136 60.0708 98.3736 60.4037 99.1189 60.5999L99.3734 59.6328L99.6279 58.6657C99.1363 58.5364 98.8197 58.3484 98.6157 58.1445L97.9086 58.8516ZM99.3734 59.6328L99.1309 60.603C99.8617 60.7857 100.757 60.9053 101.799 60.9725L101.864 59.9746L101.928 58.9767C100.952 58.9137 100.187 58.8055 99.616 58.6627L99.3734 59.6328ZM101.864 59.9746H100.864V61H101.864H102.864V59.9746H101.864ZM101.864 61V60H86.2387V61V62H101.864V61ZM86.2387 61H87.2387V59.9746H86.2387H85.2387V61H86.2387ZM86.2387 59.9746L86.2974 60.9729C87.4317 60.9062 88.3804 60.7873 89.1179 60.603L88.8754 59.6328L88.6328 58.6627C88.0682 58.8038 87.2592 58.9129 86.1799 58.9763L86.2387 59.9746ZM88.8754 59.6328L89.107 60.6056C89.9226 60.4114 90.6443 60.0575 91.175 59.4785L90.4379 58.8027L89.7007 58.127C89.5153 58.3293 89.1953 58.5287 88.6438 58.66L88.8754 59.6328ZM90.4379 58.8027L91.2013 59.4487C91.7074 58.8505 91.9937 58.1081 92.1114 57.284L91.1215 57.1426L90.1315 57.0012C90.0539 57.5442 89.8845 57.9086 89.6745 58.1568L90.4379 58.8027ZM91.1215 57.1426L92.1053 57.3215C92.2507 56.5218 92.3168 55.5109 92.3168 54.3105H91.3168H90.3168C90.3168 55.4539 90.2526 56.3311 90.1376 56.9637L91.1215 57.1426ZM91.3168 54.3105H92.3168V29.0664H91.3168H90.3168V54.3105H91.3168ZM91.3168 29.0664L90.4031 28.6599L76.1942 60.5935L77.1078 61L78.0214 61.4065L92.2304 29.4729L91.3168 29.0664ZM136.678 35.9023L135.717 36.1771L135.924 36.9023H136.678V35.9023ZM135.897 33.5586L134.962 33.9146L134.965 33.9223L134.968 33.93L135.897 33.5586ZM135.067 31.752L134.162 32.1778L134.177 32.2106L134.195 32.2422L135.067 31.752ZM134.139 30.2871L133.346 30.8968L133.361 30.9153L133.376 30.9331L134.139 30.2871ZM132.967 28.9688L132.25 29.6655L132.255 29.6707L132.26 29.6759L132.967 28.9688ZM129.159 26.4297L128.772 27.3521L128.785 27.3575L128.798 27.3625L129.159 26.4297ZM119.149 26.7227L118.723 25.8178L118.716 25.8211L119.149 26.7227ZM114.95 30.0918L114.169 29.4671L114.167 29.4693L114.95 30.0918ZM116.463 56.4102L115.82 57.1759L115.829 57.1836L115.839 57.191L116.463 56.4102ZM137.655 53.7246L138.362 53.0175L137.671 52.3272L136.965 53.0007L137.655 53.7246ZM138.631 54.7012L139.43 55.303L139.953 54.6088L139.338 53.9941L138.631 54.7012ZM132.137 59.9258L131.712 59.0204L131.708 59.0225L132.137 59.9258ZM110.018 56.6055L109.304 57.3056L109.311 57.3126L110.018 56.6055ZM106.209 50.6484L105.275 51.0039L105.279 51.0153L106.209 50.6484ZM106.551 34.2422L107.47 34.6375L107.471 34.6333L106.551 34.2422ZM111.434 27.6992L110.806 26.9213L110.801 26.9253L111.434 27.6992ZM117.147 24.5254L117.48 25.4682L117.493 25.4635L117.147 24.5254ZM131.746 24.7207L132.083 23.779L132.074 23.776L132.066 23.7732L131.746 24.7207ZM135.36 24.7207L134.75 23.9281L134.735 23.94L134.72 23.9525L135.36 24.7207ZM136.239 23.3535V22.3535H135.479L135.275 23.0859L136.239 23.3535ZM137.411 23.3535L138.41 23.3108L138.369 22.3535H137.411V23.3535ZM137.948 35.9023V36.9023H138.991L138.947 35.8596L137.948 35.9023ZM136.678 35.9023L137.64 35.6276C137.373 34.694 137.102 33.8787 136.825 33.1872L135.897 33.5586L134.968 33.93C135.213 34.5406 135.463 35.2878 135.717 36.1771L136.678 35.9023ZM135.897 33.5586L136.831 33.2026C136.557 32.4826 136.26 31.834 135.938 31.2617L135.067 31.752L134.195 32.2422C134.459 32.7116 134.716 33.2674 134.962 33.9146L135.897 33.5586ZM135.067 31.752L135.972 31.3262C135.678 30.7016 135.323 30.1377 134.902 29.6412L134.139 30.2871L133.376 30.9331C133.672 31.2829 133.935 31.6955 134.162 32.1778L135.067 31.752ZM134.139 30.2871L134.932 29.6774C134.575 29.2138 134.155 28.7419 133.674 28.2616L132.967 28.9688L132.26 29.6759C132.691 30.107 133.052 30.5141 133.346 30.8968L134.139 30.2871ZM132.967 28.9688L133.684 28.272C132.481 27.0328 131.091 26.1041 129.519 25.4969L129.159 26.4297L128.798 27.3625C130.091 27.8621 131.24 28.626 132.25 29.6655L132.967 28.9688ZM129.159 26.4297L129.545 25.5072C128.016 24.8675 126.387 24.5508 124.666 24.5508V25.5508V26.5508C126.136 26.5508 127.501 26.82 128.772 27.3521L129.159 26.4297ZM124.666 25.5508V24.5508C122.516 24.5508 120.529 24.9679 118.723 25.8178L119.149 26.7227L119.575 27.6275C121.089 26.9149 122.78 26.5508 124.666 26.5508V25.5508ZM119.149 26.7227L118.716 25.8211C116.948 26.6699 115.431 27.8897 114.169 29.4671L114.95 30.0918L115.73 30.7165C116.812 29.3642 118.095 28.3379 119.582 27.6242L119.149 26.7227ZM114.95 30.0918L114.167 29.4693C112.937 31.0161 112.004 32.8759 111.355 35.0277L112.313 35.3164L113.27 35.6051C113.858 33.6554 114.684 32.0321 115.732 30.7143L114.95 30.0918ZM112.313 35.3164L111.355 35.0277C110.704 37.1864 110.385 39.5642 110.385 42.1523H111.385H112.385C112.385 39.7274 112.684 37.5479 113.27 35.6051L112.313 35.3164ZM111.385 42.1523H110.385C110.385 45.4949 110.836 48.4623 111.763 51.036L112.703 50.6973L113.644 50.3585C112.813 48.0495 112.385 45.3202 112.385 42.1523H111.385ZM112.703 50.6973L111.763 51.036C112.688 53.607 114.03 55.6725 115.82 57.1759L116.463 56.4102L117.106 55.6445C115.641 54.4134 114.477 52.6704 113.644 50.3585L112.703 50.6973ZM116.463 56.4102L115.839 57.191C118.472 59.2981 121.611 60.3398 125.203 60.3398V59.3398V58.3398C122.025 58.3398 119.337 57.4285 117.088 55.6293L116.463 56.4102ZM125.203 59.3398V60.3398C127.645 60.3398 129.918 59.8749 132.01 58.9334L131.6 58.0215L131.19 57.1096C129.375 57.9259 127.385 58.3398 125.203 58.3398V59.3398ZM131.6 58.0215L132.01 58.9334C134.095 57.9952 136.206 56.4871 138.345 54.4485L137.655 53.7246L136.965 53.0007C134.937 54.9335 133.011 56.29 131.19 57.1096L131.6 58.0215ZM137.655 53.7246L136.948 54.4317L137.924 55.4083L138.631 54.7012L139.338 53.9941L138.362 53.0175L137.655 53.7246ZM138.631 54.7012L137.833 54.0993C136.242 56.2106 134.207 57.8501 131.712 59.0205L132.137 59.9258L132.562 60.8311C135.341 59.5275 137.636 57.6839 139.43 55.303L138.631 54.7012ZM132.137 59.9258L131.708 59.0225C129.252 60.1893 126.503 60.7812 123.446 60.7812V61.7812V62.7812C126.768 62.7812 129.814 62.1362 132.566 60.8291L132.137 59.9258ZM123.446 61.7812V60.7812C120.79 60.7812 118.395 60.3442 116.249 59.4856L115.877 60.4141L115.506 61.3425C117.917 62.3069 120.568 62.7812 123.446 62.7812V61.7812ZM115.877 60.4141L116.249 59.4856C114.087 58.621 112.251 57.424 110.725 55.8984L110.018 56.6055L109.311 57.3126C111.04 59.0422 113.11 60.3842 115.506 61.3425L115.877 60.4141ZM110.018 56.6055L110.732 55.9054C109.204 54.3472 108.005 52.477 107.14 50.2816L106.209 50.6484L105.279 51.0153C106.236 53.4423 107.576 55.5435 109.304 57.3055L110.018 56.6055ZM106.209 50.6484L107.144 50.293C106.314 48.1106 105.891 45.6616 105.891 42.9336H104.891H103.891C103.891 45.8696 104.347 48.5639 105.275 51.0039L106.209 50.6484ZM104.891 42.9336H105.891C105.891 39.8265 106.424 37.0668 107.47 34.6375L106.551 34.2422L105.633 33.8469C104.465 36.5608 103.891 39.5954 103.891 42.9336H104.891ZM106.551 34.2422L107.471 34.6333C108.516 32.1751 110.047 30.1265 112.067 28.4732L111.434 27.6992L110.801 26.9253C108.525 28.7876 106.8 31.1009 105.631 33.851L106.551 34.2422ZM111.434 27.6992L112.062 28.4772C113.664 27.1835 115.468 26.1802 117.48 25.4681L117.147 24.5254L116.813 23.5827C114.594 24.368 112.589 25.4806 110.806 26.9213L111.434 27.6992ZM117.147 24.5254L117.493 25.4635C119.504 24.7211 121.519 24.3535 123.543 24.3535V23.3535V22.3535C121.271 22.3535 119.022 22.7672 116.8 23.5873L117.147 24.5254ZM123.543 23.3535V24.3535C126.198 24.3535 128.825 24.7905 131.427 25.6682L131.746 24.7207L132.066 23.7732C129.264 22.828 126.422 22.3535 123.543 22.3535V23.3535ZM131.746 24.7207L131.41 25.6624C132.361 26.0021 133.221 26.209 133.944 26.209V25.209V24.209C133.56 24.209 132.955 24.0903 132.083 23.779L131.746 24.7207ZM133.944 25.209V26.209C134.709 26.209 135.413 25.9778 136 25.4889L135.36 24.7207L134.72 23.9525C134.525 24.1146 134.285 24.209 133.944 24.209V25.209ZM135.36 24.7207L135.969 25.5133C136.588 25.0378 136.99 24.3855 137.202 23.6212L136.239 23.3535L135.275 23.0859C135.162 23.4934 134.978 23.7526 134.75 23.9281L135.36 24.7207ZM136.239 23.3535V24.3535H137.411V23.3535V22.3535H136.239V23.3535ZM137.411 23.3535L136.411 23.3963L136.949 35.9451L137.948 35.9023L138.947 35.8596L138.41 23.3108L137.411 23.3535ZM137.948 35.9023V34.9023H136.678V35.9023V36.9023H137.948V35.9023Z" fill="black" mask="url(#path-1-outside-1_2364_112)"/>
<ellipse cx="152.748" cy="61" rx="10.2516" ry="10" fill="#1727D7"/>
</g>
<g filter="url(#filter1_dd_2364_112)">
<path d="M116.371 45V42.205H115.341V41.78H117.941V42.205H116.916V45H116.371ZM118.378 45V41.78H120.623V42.205H118.923V43.18H120.438V43.6H118.923V44.58H120.623V45H118.378ZM122.588 45.05C122.058 45.05 121.656 44.905 121.383 44.615C121.113 44.325 120.978 43.9333 120.978 43.44C120.978 43.0867 121.034 42.7833 121.148 42.53C121.264 42.2733 121.441 42.0767 121.678 41.94C121.914 41.8 122.216 41.73 122.583 41.73C122.769 41.73 122.939 41.745 123.093 41.775C123.249 41.8017 123.394 41.8383 123.528 41.885V42.36C123.394 42.3067 123.251 42.2667 123.098 42.24C122.948 42.21 122.789 42.195 122.623 42.195C122.223 42.195 121.939 42.3017 121.773 42.515C121.609 42.7283 121.528 43.0367 121.528 43.44C121.528 43.8167 121.618 44.1033 121.798 44.3C121.978 44.4933 122.256 44.59 122.633 44.59C122.786 44.59 122.939 44.5783 123.093 44.555C123.249 44.5283 123.396 44.4883 123.533 44.435V44.915C123.399 44.9583 123.254 44.9917 123.098 45.015C122.944 45.0383 122.774 45.05 122.588 45.05ZM124.061 45V41.78H124.606V43.18H126.156V41.78H126.701V45H126.156V43.6H124.606V45H124.061ZM128.485 45V41.78H130.73V42.205H129.03V43.18H130.545V43.6H129.03V44.58H130.73V45H128.485ZM132.069 45V42.205H131.039V41.78H133.639V42.205H132.614V45H132.069ZM135.228 45V41.78H135.773V45H135.228ZM136.405 45V41.78H136.885L138.565 44.15V41.78H139.105V45H138.625L136.95 42.635V45H136.405ZM139.74 45V41.78H140.22L141.9 44.15V41.78H142.44V45H141.96L140.285 42.635V45H139.74ZM144.5 45.05C143.99 45.05 143.608 44.9167 143.355 44.65C143.101 44.38 142.975 43.9633 142.975 43.4C142.975 42.8133 143.101 42.3883 143.355 42.125C143.608 41.8617 143.99 41.73 144.5 41.73C145.013 41.73 145.395 41.8617 145.645 42.125C145.898 42.3883 146.025 42.8133 146.025 43.4C146.025 43.9633 145.898 44.38 145.645 44.65C145.395 44.9167 145.013 45.05 144.5 45.05ZM144.5 44.59C144.836 44.59 145.083 44.4983 145.24 44.315C145.4 44.1283 145.48 43.8233 145.48 43.4C145.48 42.9533 145.4 42.6417 145.24 42.465C145.083 42.285 144.836 42.195 144.5 42.195C144.166 42.195 143.92 42.285 143.76 42.465C143.603 42.6417 143.525 42.9533 143.525 43.4C143.525 43.8233 143.603 44.1283 143.76 44.315C143.92 44.4983 144.166 44.59 144.5 44.59ZM147.491 45L146.261 41.78H146.826L147.791 44.415L148.756 41.78H149.321L148.101 45H147.491ZM149.088 45L150.318 41.78H150.928L152.148 45H151.588L151.268 44.17H149.973L149.653 45H149.088ZM150.058 43.75H151.178L150.618 42.275L150.058 43.75ZM153.094 45V42.205H152.064V41.78H154.664V42.205H153.639V45H153.094ZM155.101 45V41.78H155.646V45H155.101ZM157.703 45.05C157.193 45.05 156.811 44.9167 156.558 44.65C156.305 44.38 156.178 43.9633 156.178 43.4C156.178 42.8133 156.305 42.3883 156.558 42.125C156.811 41.8617 157.193 41.73 157.703 41.73C158.216 41.73 158.598 41.8617 158.848 42.125C159.101 42.3883 159.228 42.8133 159.228 43.4C159.228 43.9633 159.101 44.38 158.848 44.65C158.598 44.9167 158.216 45.05 157.703 45.05ZM157.703 44.59C158.04 44.59 158.286 44.4983 158.443 44.315C158.603 44.1283 158.683 43.8233 158.683 43.4C158.683 42.9533 158.603 42.6417 158.443 42.465C158.286 42.285 158.04 42.195 157.703 42.195C157.37 42.195 157.123 42.285 156.963 42.465C156.806 42.6417 156.728 42.9533 156.728 43.4C156.728 43.8233 156.806 44.1283 156.963 44.315C157.123 44.4983 157.37 44.59 157.703 44.59ZM159.759 45V41.78H160.239L161.919 44.15V41.78H162.459V45H161.979L160.304 42.635V45H159.759Z" fill="#1727D7"/>
</g>
<defs>
<filter id="filter0_d_2364_112" x="12.5375" y="22.3535" width="154.462" height="56.6465" filterUnits="userSpaceOnUse" color-interpolation-filters="sRGB">
<feFlood flood-opacity="0" result="BackgroundImageFix"/>
<feColorMatrix in="SourceAlpha" type="matrix" values="0 0 0 0 0 0 0 0 0 0 0 0 0 0 0 0 0 0 127 0" result="hardAlpha"/>
<feOffset dy="4"/>
<feGaussianBlur stdDeviation="2"/>
<feComposite in2="hardAlpha" operator="out"/>
<feColorMatrix type="matrix" values="0 0 0 0 0 0 0 0 0 0 0 0 0 0 0 0 0 0 0.25 0"/>
<feBlend mode="normal" in2="BackgroundImageFix" result="effect1_dropShadow_2364_112"/>
<feBlend mode="normal" in="SourceGraphic" in2="effect1_dropShadow_2364_112" result="shape"/>
</filter>
<filter id="filter1_dd_2364_112" x="111.341" y="41.73" width="55.1187" height="11.3201" filterUnits="userSpaceOnUse" color-interpolation-filters="sRGB">
<feFlood flood-opacity="0" result="BackgroundImageFix"/>
<feColorMatrix in="SourceAlpha" type="matrix" values="0 0 0 0 0 0 0 0 0 0 0 0 0 0 0 0 0 0 127 0" result="hardAlpha"/>
<feOffset dy="4"/>
<feGaussianBlur stdDeviation="2"/>
<feComposite in2="hardAlpha" operator="out"/>
<feColorMatrix type="matrix" values="0 0 0 0 0 0 0 0 0 0 0 0 0 0 0 0 0 0 0.25 0"/>
<feBlend mode="normal" in2="BackgroundImageFix" result="effect1_dropShadow_2364_112"/>
<feColorMatrix in="SourceAlpha" type="matrix" values="0 0 0 0 0 0 0 0 0 0 0 0 0 0 0 0 0 0 127 0" result="hardAlpha"/>
<feOffset dy="4"/>
<feGaussianBlur stdDeviation="2"/>
<feComposite in2="hardAlpha" operator="out"/>
<feColorMatrix type="matrix" values="0 0 0 0 0 0 0 0 0 0 0 0 0 0 0 0 0 0 0.25 0"/>
<feBlend mode="normal" in2="effect1_dropShadow_2364_112" result="effect2_dropShadow_2364_112"/>
<feBlend mode="normal" in="SourceGraphic" in2="effect2_dropShadow_2364_112" result="shape"/>
</filter>
</defs>
</svg>
